0
SECTION
2
HEADER
9
$INSUNITS
70
4
9
$ACADVER
1
AC1014
9
$HANDSEED
5
FFFF
0
ENDSEC
0
SECTION
2
TABLES
0
TABLE
2
VPORT
5
8
100
AcDbSymbolTable
0
ENDTAB
0
TABLE
2
LTYPE
5
5
100
AcDbSymbolTable
0
LTYPE
5
14
100
AcDbSymbolTableRecord
100
AcDbLinetypeTableRecord
2
BYBLOCK
70
0
0
LTYPE
5
15
100
AcDbSymbolTableRecord
100
AcDbLinetypeTableRecord
2
BYLAYER
70
0
0
ENDTAB
0
TABLE
2
LAYER
5
2
100
AcDbSymbolTable
70
2
0
LAYER
5
50
100
AcDbSymbolTableRecord
100
AcDbLayerTableRecord
2
0
70
0
6
CONTINUOUS
0
ENDTAB
0
TABLE
2
STYLE
5
3
100
AcDbSymbolTable
70
1
0
STYLE
5
11
100
AcDbSymbolTableRecord
100
AcDbTextStyleTableRecord
2
STANDARD
70
0
0
ENDTAB
0
TABLE
2
VIEW
5
6
100
AcDbSymbolTable
70
0
0
ENDTAB
0
TABLE
2
UCS
5
7
100
AcDbSymbolTable
70
0
0
ENDTAB
0
TABLE
2
APPID
5
9
100
AcDbSymbolTable
70
2
0
APPID
5
12
100
AcDbSymbolTableRecord
100
AcDbRegAppTableRecord
2
ACAD
70
0
0
ENDTAB
0
TABLE
2
DIMSTYLE
5
A
100
AcDbSymbolTable
70
1
0
ENDTAB
0
TABLE
2
BLOCK_RECORD
5
1
100
AcDbSymbolTable
70
1
0
BLOCK_RECORD
5
1F
100
AcDbSymbolTableRecord
100
AcDbBlockTableRecord
2
*MODEL_SPACE
0
BLOCK_RECORD
5
1B
100
AcDbSymbolTableRecord
100
AcDbBlockTableRecord
2
*PAPER_SPACE
0
ENDTAB
0
ENDSEC
0
SECTION
2
BLOCKS
0
BLOCK
5
20
100
AcDbEntity
100
AcDbBlockBegin
2
*MODEL_SPACE
0
ENDBLK
5
21
100
AcDbEntity
100
AcDbBlockEnd
0
BLOCK
5
1C
100
AcDbEntity
100
AcDbBlockBegin
2
*PAPER_SPACE
0
ENDBLK
5
1D
100
AcDbEntity
100
AcDbBlockEnd
0
ENDSEC
0
SECTION
2
ENTITIES
0
CIRCLE
5
100
100
AcDbEntity
8
0
100
AcDbCircle
10
29.475855740759485
20
97.433016474938867
30
0
40
0.5
210
0
220
0
230
1
0
CIRCLE
5
101
100
AcDbEntity
8
0
100
AcDbCircle
10
21.058476964996792
20
97.79383689820304
30
0
40
0.5
210
0
220
0
230
1
0
CIRCLE
5
102
100
AcDbEntity
8
0
100
AcDbCircle
10
4.2125543566953461
20
98.154730912802364
30
0
40
0.5
210
0
220
0
230
1
0
CIRCLE
5
103
100
AcDbEntity
8
0
100
AcDbCircle
10
-12.636804071362704
20
98.034424730564993
30
0
40
0.5
210
0
220
0
230
1
0
CIRCLE
5
104
100
AcDbEntity
8
0
100
AcDbCircle
10
-29.475855740762604
20
97.433016474938682
30
0
40
0.5
210
0
220
0
230
1
0
CIRCLE
5
105
100
AcDbEntity
8
0
100
AcDbCircle
10
-46.29086647942983
20
96.350996663123226
30
0
40
0.5
210
0
220
0
230
1
0
CIRCLE
5
106
100
AcDbEntity
8
0
100
AcDbCircle
10
-52.071273486074446
20
95.871583729893203
30
0
40
0.5
210
0
220
0
230
1
0
CIRCLE
5
107
100
AcDbEntity
8
0
100
AcDbCircle
10
-37.887223977433884
20
96.952037037101505
30
0
40
0.5
210
0
220
0
230
1
0
CIRCLE
5
108
100
AcDbEntity
8
0
100
AcDbCircle
10
-21.058476964999919
20
97.793836898202812
30
0
40
0.5
210
0
220
0
230
1
0
CIRCLE
5
109
100
AcDbEntity
8
0
100
AcDbCircle
10
-4.2125543566984769
20
98.154730912802364
30
0
40
0.5
210
0
220
0
230
1
0
CIRCLE
5
110
100
AcDbEntity
8
0
100
AcDbCircle
10
12.63680407135957
20
98.034424730565064
30
0
40
0.5
210
0
220
0
230
1
0
CIRCLE
5
111
100
AcDbEntity
8
0
100
AcDbCircle
10
37.887223977430764
20
96.952037037101604
30
0
40
0.5
210
0
220
0
230
1
0
CIRCLE
5
112
100
AcDbEntity
8
0
100
AcDbCircle
10
46.290866479426711
20
96.350996663123439
30
0
40
0.5
210
0
220
0
230
1
0
CIRCLE
5
113
100
AcDbEntity
8
0
100
AcDbCircle
10
-33.43977096286833
20
92.964472385311595
30
0
40
1.45
210
0
220
0
230
1
0
CIRCLE
5
114
100
AcDbEntity
8
0
100
AcDbCircle
10
33.439770962855803
20
92.964472385312504
30
0
40
1.45
210
0
220
0
230
1
0
LWPOLYLINE
5
115
100
AcDbEntity
8
0
100
AcDbPolyline
90
24
70
1
43
0.0
10
-47.05641053900267
20
91.023316311019826
42
0.22703472501511901
10
-45.563569010121263
20
91.892112727405205
42
-0.22843713961734491
10
-44.060093704236124
20
92.761739122780142
42
-0.001039370538774186
10
-41.629290119327237
20
92.939865357270577
42
-0.13520193443741585
10
-39.025521911234677
20
92.418274202056466
10
-34.789003537278312
20
90.285000149956218
42
0.26794919243109594
10
-31.793896225496766
20
90.4562665825447
10
-27.82816751615481
20
93.058562092326639
42
-0.1352019344331391
10
-25.300828269573188
20
93.87356058737268
42
-0.021588588617979326
10
25.300828269315797
20
93.873560587383878
42
-0.1352019344267259
10
27.828167515792885
20
93.058562092408138
10
31.793896438225069
20
90.456266442942905
42
0.26794919243107362
10
34.789003764538769
20
90.285000264388046
10
39.025521911817755
20
92.418274202122944
42
-0.13520193442689593
10
41.629290119728864
20
92.93986535724224
42
-0.0018676408643766172
10
45.996644870447398
20
92.612556661628105
42
0.99999999999999989
10
46.585088043945007
20
100.08943609969144
42
0.038791975895554498
10
-45.407377175625086
20
100.18094526751003
42
-0.22704531476934739
10
-47.017823269610936
20
100.80552308736634
42
0.22842649837331472
10
-48.638741100021505
20
101.42927005499445
42
0.0017314103160209111
10
-52.746240165039701
20
101.07819099764187
42
0.41520132850334052
10
-54.560540008690282
20
98.902119731053148
10
-53.962735487009645
20
92.429631190436211
42
0.41321555467575194
10
-51.794062398220035
20
90.621430930440781
42
-0.0020327860249584255
0
ENDSEC
0
SECTION
2
OBJECTS
0
DICTIONARY
5
C
100
AcDbDictionary
3
ACAD_GROUP
350
D
3
ACAD_MLINESTYLE
350
17
0
DICTIONARY
5
D
100
AcDbDictionary
0
DICTIONARY
5
1A
330
C
100
AcDbDictionary
0
DICTIONARY
5
17
100
AcDbDictionary
0
ENDSEC
0
EOF
